{"title":"Timber Falls 2007 DVDRip Xvid BigPerm LKRG ","uid":6346257,"size":1214714529,"categoryP":"video","categoryS":"movies","magnet":"?xt=urn:btih:1d31e36d5260356225ef58bf4e0db48669d88405&amp;dn=Timber+Falls+2007+DVDRip+Xvid+BigPerm+LKRG+&amp;tr=udp%3A%2F%2Ftracker.openbittorrent.com%3A80&amp;tr=udp%3A%2F%2Fopen.demonii.com%3A1337&amp;tr=udp%3A%2F%2Ftracker.coppersurfer.tk%3A6969&amp;tr=udp%3A%2F%2Fexodus.desync.com%3A6969","seeders":0,"leechers":1,"uploader":".BONE.","files":2,"time":1303843610,"description":"\nPLOT\n\nA weekend of camping in the mountains becomes an excursion into hell for a young couple, who\nbecome pawns in a grotesque plot hatched by deranged locals.\n &lt;a href=&quot;\nhttp://www.imdb.com/title/tt0857295/&quot; rel=&quot;nofollow&quot; target=&quot;_NEW&quot;&gt;\nhttp://www.imdb.com/title/tt0857295/&lt;/a&gt;\n\n\nEncoded By .......: BigPerm1828\nRuntime ..........: 1h 40mn\nFile Size ........: 1.13 GiB\nResolution .......: 704x396\nIMDb URL .........: http://www.imdb.com/title/tt0857295/\nLanguage .........: English\nFormat : AVI\nFormat/Info : Audio Video Interleave\nFormat profile : OpenDML\nFile size : 1.13 GiB\nDuration : 1h 40mn\nOverall bit rate : 1 610 Kbps\nVideo\nID : 0\nFormat : MPEG-4 Visual\nFormat profile : Advanced Simple@L5\nFormat settings, BVOP : Yes\nFormat settings, QPel : No\nFormat settings, GMC : No warppoints\nFormat settings, Matrix : Default (H.263)\nCodec ID : XVID\nCodec ID/Hint : XviD\nDuration : 1h 40mn\nBit rate : 42.4 Kbps\nWidth : 704 pixels\nHeight : 396 pixels\nDisplay aspect ratio : 16:9\nFrame rate : 29.970 fps\nColor space : YUV\nChroma subsampling : 4:2:0\nBit depth : 8 bits\nScan type : Progressive\nCompression mode : Lossy\nBits/(Pixel*Frame) : 0.005\nStream size : 30.5 MiB (3%)\nWriting library : XviD 1.2.1 (UTC 2008-12-04)\n\nAudio\nID : 1\nFormat : AC-3\nFormat/Info : Audio Coding 3\nCodec ID : 2000\nDuration : 1h 40mn\nBit rate mode : Constant\nBit rate : 448 Kbps\nChannel(s) : 6 channels\nSampling rate : 48.0 KHz\nBit depth : 16 bits\nCompression mode : Lossy\nStream size : 322 MiB (28%)\nAlignment : Aligned on interleaves\n &lt;a href=&quot;\nhttp://leetleech.org/images/71449816558273625561.png&quot; rel=&quot;nofollow&quot; target=&quot;_NEW&quot;&gt;\nhttp://leetleech.org/images/71449816558273625561.png&lt;/a&gt;\n &lt;a href=&quot;\nhttp://leetleech.org/images/89147784922579613331.png&quot; rel=&quot;nofollow&quot; target=&quot;_NEW&quot;&gt;\nhttp://leetleech.org/images/89147784922579613331.png&lt;/a&gt;\n &lt;a href=&quot;\nhttp://leetleech.org/images/51594029293708083823.png&quot; rel=&quot;nofollow&quot; target=&quot;_NEW&quot;&gt;\nhttp://leetleech.org/images/51594029293708083823.png&lt;/a&gt;\n &lt;a href=&quot;\nhttp://leetleech.org/images/34347843790298097939.png&quot; rel=&quot;nofollow&quot; target=&quot;_NEW&quot;&gt;\nhttp://leetleech.org/images/34347843790298097939.png&lt;/a&gt;\n &lt;a href=&quot;\nhttp://leetleech.org/images/73428246965875944740.png&quot; rel=&quot;nofollow&quot; target=&quot;_NEW&quot;&gt;\nhttp://leetleech.org/images/73428246965875944740.png&lt;/a&gt;","torrent":{"xt":"urn:btih:1d31e36d5260356225ef58bf4e0db48669d88405","amp;dn":"Timber+Falls+2007+DVDRip+Xvid+BigPerm+LKRG+","amp;tr":["udp%3A%2F%2Ftracker.openbittorrent.com%3A80","udp%3A%2F%2Fopen.demonii.com%3A1337","udp%3A%2F%2Ftracker.coppersurfer.tk%3A6969","udp%3A%2F%2Fexodus.desync.com%3A6969"],"infoHash":"1d31e36d5260356225ef58bf4e0db48669d88405","infoHashBuffer":{"type":"Buffer","data":[29,49,227,109,82,96,53,98,37,239,88,191,78,13,180,134,105,216,132,5]},"announce":[],"urlList":[]}}